<mxfile host="app.diagrams.net" agent="Mozilla/5.0 (Windows NT 10.0; Win64; x64) AppleWebKit/537.36 (KHTML, like Gecko) Chrome/129.0.0.0 Safari/537.36 Edg/129.0.0.0" version="24.7.17">
  <diagram name="Page-1" id="Ysk5sbXHKCxf9_mHq7ml">
    <mxGraphModel dx="1280" dy="793" grid="1" gridSize="10" guides="1" tooltips="1" connect="1" arrows="1" fold="1" page="1" pageScale="1" pageWidth="1400" pageHeight="850" math="0" shadow="0">
      <root>
        <mxCell id="0" />
        <mxCell id="1" parent="0" />
        <mxCell id="HsLNgdYdGucNqx7IJYq5-44" style="edgeStyle=orthogonalEdgeStyle;rounded=0;orthogonalLoop=1;jettySize=auto;html=1;" edge="1" parent="1" source="HsLNgdYdGucNqx7IJYq5-39" target="HsLNgdYdGucNqx7IJYq5-10">
          <mxGeometry relative="1" as="geometry" />
        </mxCell>
        <mxCell id="HsLNgdYdGucNqx7IJYq5-67" value="" style="edgeStyle=orthogonalEdgeStyle;rounded=0;orthogonalLoop=1;jettySize=auto;html=1;" edge="1" parent="1" source="HsLNgdYdGucNqx7IJYq5-39" target="HsLNgdYdGucNqx7IJYq5-40">
          <mxGeometry relative="1" as="geometry">
            <Array as="points">
              <mxPoint x="602" y="230" />
              <mxPoint x="602" y="230" />
            </Array>
          </mxGeometry>
        </mxCell>
        <mxCell id="HsLNgdYdGucNqx7IJYq5-39" value="" style="rounded=1;whiteSpace=wrap;html=1;" vertex="1" parent="1">
          <mxGeometry x="352" y="269" width="499" height="207" as="geometry" />
        </mxCell>
        <mxCell id="HsLNgdYdGucNqx7IJYq5-46" value="" style="edgeStyle=orthogonalEdgeStyle;rounded=0;orthogonalLoop=1;jettySize=auto;html=1;" edge="1" parent="1" source="HsLNgdYdGucNqx7IJYq5-9">
          <mxGeometry relative="1" as="geometry">
            <mxPoint x="1080" y="357" as="targetPoint" />
          </mxGeometry>
        </mxCell>
        <mxCell id="HsLNgdYdGucNqx7IJYq5-9" value="" style="outlineConnect=0;dashed=0;verticalLabelPosition=bottom;verticalAlign=top;align=center;html=1;shape=mxgraph.aws3.redshift;fillColor=#2E73B8;gradientColor=none;" vertex="1" parent="1">
          <mxGeometry x="910" y="311" width="84" height="92.5" as="geometry" />
        </mxCell>
        <mxCell id="HsLNgdYdGucNqx7IJYq5-36" value="" style="edgeStyle=orthogonalEdgeStyle;rounded=0;orthogonalLoop=1;jettySize=auto;html=1;" edge="1" parent="1" source="HsLNgdYdGucNqx7IJYq5-13" target="HsLNgdYdGucNqx7IJYq5-35">
          <mxGeometry relative="1" as="geometry" />
        </mxCell>
        <mxCell id="HsLNgdYdGucNqx7IJYq5-13" value="" style="shape=image;html=1;verticalAlign=top;verticalLabelPosition=bottom;labelBackgroundColor=#ffffff;imageAspect=0;aspect=fixed;image=https://cdn4.iconfinder.com/data/icons/winter-255/64/Winter_Iceberg-128.png" vertex="1" parent="1">
          <mxGeometry x="540" y="293" width="128" height="128" as="geometry" />
        </mxCell>
        <mxCell id="HsLNgdYdGucNqx7IJYq5-17" value="" style="group" vertex="1" connectable="0" parent="1">
          <mxGeometry x="562" y="539" width="80" height="250" as="geometry" />
        </mxCell>
        <mxCell id="HsLNgdYdGucNqx7IJYq5-16" style="edgeStyle=orthogonalEdgeStyle;rounded=0;orthogonalLoop=1;jettySize=auto;html=1;" edge="1" parent="HsLNgdYdGucNqx7IJYq5-17" source="HsLNgdYdGucNqx7IJYq5-10" target="HsLNgdYdGucNqx7IJYq5-15">
          <mxGeometry relative="1" as="geometry" />
        </mxCell>
        <mxCell id="HsLNgdYdGucNqx7IJYq5-10" value="" style="sketch=0;points=[[0,0,0],[0.25,0,0],[0.5,0,0],[0.75,0,0],[1,0,0],[0,1,0],[0.25,1,0],[0.5,1,0],[0.75,1,0],[1,1,0],[0,0.25,0],[0,0.5,0],[0,0.75,0],[1,0.25,0],[1,0.5,0],[1,0.75,0]];outlineConnect=0;fontColor=#232F3E;fillColor=#8C4FFF;strokeColor=#ffffff;dashed=0;verticalLabelPosition=bottom;verticalAlign=top;align=center;html=1;fontSize=12;fontStyle=0;aspect=fixed;shape=mxgraph.aws4.resourceIcon;resIcon=mxgraph.aws4.lake_formation;" vertex="1" parent="HsLNgdYdGucNqx7IJYq5-17">
          <mxGeometry width="78" height="78" as="geometry" />
        </mxCell>
        <mxCell id="HsLNgdYdGucNqx7IJYq5-15" value="Amazon Athena" style="sketch=0;outlineConnect=0;fontColor=#232F3E;gradientColor=none;strokeColor=#ffffff;fillColor=#232F3E;dashed=0;verticalLabelPosition=middle;verticalAlign=bottom;align=center;html=1;whiteSpace=wrap;fontSize=10;fontStyle=1;spacing=3;shape=mxgraph.aws4.productIcon;prIcon=mxgraph.aws4.athena;" vertex="1" parent="HsLNgdYdGucNqx7IJYq5-17">
          <mxGeometry y="140" width="80" height="110" as="geometry" />
        </mxCell>
        <mxCell id="HsLNgdYdGucNqx7IJYq5-22" value="" style="group" vertex="1" connectable="0" parent="1">
          <mxGeometry x="30" y="259" width="140" height="560" as="geometry" />
        </mxCell>
        <mxCell id="HsLNgdYdGucNqx7IJYq5-18" value="" style="sketch=0;outlineConnect=0;fontColor=#232F3E;gradientColor=none;fillColor=#C925D1;strokeColor=none;dashed=0;verticalLabelPosition=bottom;verticalAlign=top;align=center;html=1;fontSize=12;fontStyle=0;aspect=fixed;pointerEvents=1;shape=mxgraph.aws4.rds_postgresql_instance;" vertex="1" parent="HsLNgdYdGucNqx7IJYq5-22">
          <mxGeometry width="78" height="78" as="geometry" />
        </mxCell>
        <mxCell id="HsLNgdYdGucNqx7IJYq5-19" value="" style="sketch=0;outlineConnect=0;fontColor=#232F3E;gradientColor=none;fillColor=#C925D1;strokeColor=none;dashed=0;verticalLabelPosition=bottom;verticalAlign=top;align=center;html=1;fontSize=12;fontStyle=0;aspect=fixed;pointerEvents=1;shape=mxgraph.aws4.rds_sql_server_instance;" vertex="1" parent="HsLNgdYdGucNqx7IJYq5-22">
          <mxGeometry y="123" width="78" height="78" as="geometry" />
        </mxCell>
        <mxCell id="HsLNgdYdGucNqx7IJYq5-20" value="" style="sketch=0;pointerEvents=1;shadow=0;dashed=0;html=1;strokeColor=none;fillColor=#505050;labelPosition=center;verticalLabelPosition=bottom;verticalAlign=top;outlineConnect=0;align=center;shape=mxgraph.office.services.excel_services;" vertex="1" parent="HsLNgdYdGucNqx7IJYq5-22">
          <mxGeometry y="276" width="90" height="87" as="geometry" />
        </mxCell>
        <mxCell id="HsLNgdYdGucNqx7IJYq5-21" value="Excel File" style="text;html=1;align=center;verticalAlign=middle;whiteSpace=wrap;rounded=0;" vertex="1" parent="HsLNgdYdGucNqx7IJYq5-22">
          <mxGeometry x="8" y="252" width="60" height="30" as="geometry" />
        </mxCell>
        <mxCell id="HsLNgdYdGucNqx7IJYq5-23" value="LOS_CAMUNDA, CMS" style="text;html=1;align=center;verticalAlign=middle;whiteSpace=wrap;rounded=0;" vertex="1" parent="HsLNgdYdGucNqx7IJYq5-22">
          <mxGeometry x="-20" y="78" width="140" height="30" as="geometry" />
        </mxCell>
        <mxCell id="HsLNgdYdGucNqx7IJYq5-24" value="LMS_CONFINS, LOS &amp;amp; Other" style="text;html=1;align=center;verticalAlign=middle;whiteSpace=wrap;rounded=0;" vertex="1" parent="HsLNgdYdGucNqx7IJYq5-22">
          <mxGeometry x="-20" y="205" width="140" height="30" as="geometry" />
        </mxCell>
        <mxCell id="HsLNgdYdGucNqx7IJYq5-77" value="" style="fillColor=none;strokeColor=#5A6C86;dashed=1;verticalAlign=top;fontStyle=0;fontColor=#5A6C86;whiteSpace=wrap;html=1;" vertex="1" parent="HsLNgdYdGucNqx7IJYq5-22">
          <mxGeometry x="-20" y="-249" width="160" height="809" as="geometry" />
        </mxCell>
        <mxCell id="HsLNgdYdGucNqx7IJYq5-30" value="" style="edgeStyle=orthogonalEdgeStyle;rounded=0;orthogonalLoop=1;jettySize=auto;html=1;" edge="1" parent="1" source="HsLNgdYdGucNqx7IJYq5-25" target="HsLNgdYdGucNqx7IJYq5-29">
          <mxGeometry relative="1" as="geometry" />
        </mxCell>
        <mxCell id="HsLNgdYdGucNqx7IJYq5-25" value="" style="sketch=0;points=[[0,0,0],[0.25,0,0],[0.5,0,0],[0.75,0,0],[1,0,0],[0,1,0],[0.25,1,0],[0.5,1,0],[0.75,1,0],[1,1,0],[0,0.25,0],[0,0.5,0],[0,0.75,0],[1,0.25,0],[1,0.5,0],[1,0.75,0]];outlineConnect=0;fontColor=#232F3E;fillColor=#01A88D;strokeColor=#ffffff;dashed=0;verticalLabelPosition=bottom;verticalAlign=top;align=center;html=1;fontSize=12;fontStyle=0;aspect=fixed;shape=mxgraph.aws4.resourceIcon;resIcon=mxgraph.aws4.database_migration_service;" vertex="1" parent="1">
          <mxGeometry x="210" y="309" width="96" height="96" as="geometry" />
        </mxCell>
        <mxCell id="HsLNgdYdGucNqx7IJYq5-26" style="edgeStyle=orthogonalEdgeStyle;rounded=0;orthogonalLoop=1;jettySize=auto;html=1;entryX=0;entryY=0.5;entryDx=0;entryDy=0;entryPerimeter=0;" edge="1" parent="1" source="HsLNgdYdGucNqx7IJYq5-19" target="HsLNgdYdGucNqx7IJYq5-25">
          <mxGeometry relative="1" as="geometry" />
        </mxCell>
        <mxCell id="HsLNgdYdGucNqx7IJYq5-27" style="edgeStyle=orthogonalEdgeStyle;rounded=0;orthogonalLoop=1;jettySize=auto;html=1;entryX=0;entryY=0.5;entryDx=0;entryDy=0;entryPerimeter=0;" edge="1" parent="1" source="HsLNgdYdGucNqx7IJYq5-18" target="HsLNgdYdGucNqx7IJYq5-25">
          <mxGeometry relative="1" as="geometry" />
        </mxCell>
        <mxCell id="HsLNgdYdGucNqx7IJYq5-31" value="" style="edgeStyle=orthogonalEdgeStyle;rounded=0;orthogonalLoop=1;jettySize=auto;html=1;" edge="1" parent="1" source="HsLNgdYdGucNqx7IJYq5-29" target="HsLNgdYdGucNqx7IJYq5-13">
          <mxGeometry relative="1" as="geometry" />
        </mxCell>
        <mxCell id="HsLNgdYdGucNqx7IJYq5-29" value="" style="sketch=0;points=[[0,0,0],[0.25,0,0],[0.5,0,0],[0.75,0,0],[1,0,0],[0,1,0],[0.25,1,0],[0.5,1,0],[0.75,1,0],[1,1,0],[0,0.25,0],[0,0.5,0],[0,0.75,0],[1,0.25,0],[1,0.5,0],[1,0.75,0]];outlineConnect=0;fontColor=#232F3E;fillColor=#7AA116;strokeColor=#ffffff;dashed=0;verticalLabelPosition=bottom;verticalAlign=top;align=center;html=1;fontSize=12;fontStyle=0;aspect=fixed;shape=mxgraph.aws4.resourceIcon;resIcon=mxgraph.aws4.s3;" vertex="1" parent="1">
          <mxGeometry x="373" y="309" width="98" height="98" as="geometry" />
        </mxCell>
        <mxCell id="HsLNgdYdGucNqx7IJYq5-32" style="edgeStyle=orthogonalEdgeStyle;rounded=0;orthogonalLoop=1;jettySize=auto;html=1;" edge="1" parent="1" source="HsLNgdYdGucNqx7IJYq5-15" target="HsLNgdYdGucNqx7IJYq5-65">
          <mxGeometry relative="1" as="geometry">
            <mxPoint x="1119.0000000000005" y="396" as="targetPoint" />
            <Array as="points">
              <mxPoint x="861" y="734" />
              <mxPoint x="861" y="470" />
            </Array>
          </mxGeometry>
        </mxCell>
        <mxCell id="HsLNgdYdGucNqx7IJYq5-35" value="Amazon S3" style="sketch=0;outlineConnect=0;fontColor=#232F3E;gradientColor=none;strokeColor=#ffffff;fillColor=#232F3E;dashed=0;verticalLabelPosition=middle;verticalAlign=bottom;align=center;html=1;whiteSpace=wrap;fontSize=10;fontStyle=1;spacing=3;shape=mxgraph.aws4.productIcon;prIcon=mxgraph.aws4.s3;" vertex="1" parent="1">
          <mxGeometry x="724" y="302" width="90" height="110" as="geometry" />
        </mxCell>
        <mxCell id="HsLNgdYdGucNqx7IJYq5-40" value="AWS Glue" style="sketch=0;outlineConnect=0;fontColor=#232F3E;gradientColor=none;strokeColor=#ffffff;fillColor=#232F3E;dashed=0;verticalLabelPosition=middle;verticalAlign=bottom;align=center;html=1;whiteSpace=wrap;fontSize=10;fontStyle=1;spacing=3;shape=mxgraph.aws4.productIcon;prIcon=mxgraph.aws4.glue;" vertex="1" parent="1">
          <mxGeometry x="574" y="120" width="80" height="100" as="geometry" />
        </mxCell>
        <mxCell id="HsLNgdYdGucNqx7IJYq5-42" style="edgeStyle=orthogonalEdgeStyle;rounded=0;orthogonalLoop=1;jettySize=auto;html=1;entryX=0.526;entryY=-0.016;entryDx=0;entryDy=0;entryPerimeter=0;" edge="1" parent="1" source="HsLNgdYdGucNqx7IJYq5-40" target="HsLNgdYdGucNqx7IJYq5-39">
          <mxGeometry relative="1" as="geometry" />
        </mxCell>
        <mxCell id="HsLNgdYdGucNqx7IJYq5-45" style="edgeStyle=orthogonalEdgeStyle;rounded=0;orthogonalLoop=1;jettySize=auto;html=1;entryX=0;entryY=0.5;entryDx=0;entryDy=0;entryPerimeter=0;" edge="1" parent="1" source="HsLNgdYdGucNqx7IJYq5-35" target="HsLNgdYdGucNqx7IJYq5-9">
          <mxGeometry relative="1" as="geometry" />
        </mxCell>
        <mxCell id="HsLNgdYdGucNqx7IJYq5-47" value="AWS Step Functions workflow" style="sketch=0;outlineConnect=0;gradientColor=none;html=1;whiteSpace=wrap;fontSize=12;fontStyle=0;shape=mxgraph.aws4.group;grIcon=mxgraph.aws4.group_aws_step_functions_workflow;strokeColor=#545B64;fillColor=none;verticalAlign=top;align=left;spacingLeft=30;fontColor=#545B64;dashed=0;" vertex="1" parent="1">
          <mxGeometry x="196" y="115" width="850" height="680" as="geometry" />
        </mxCell>
        <mxCell id="HsLNgdYdGucNqx7IJYq5-48" value="&lt;b&gt;&lt;font style=&quot;font-size: 24px;&quot;&gt;Data Source&lt;/font&gt;&lt;/b&gt;" style="text;html=1;align=center;verticalAlign=middle;whiteSpace=wrap;rounded=0;" vertex="1" parent="1">
          <mxGeometry x="11" y="20" width="120" height="70" as="geometry" />
        </mxCell>
        <mxCell id="HsLNgdYdGucNqx7IJYq5-49" value="S3 Raw" style="text;html=1;align=center;verticalAlign=middle;whiteSpace=wrap;rounded=0;" vertex="1" parent="1">
          <mxGeometry x="395" y="406" width="60" height="30" as="geometry" />
        </mxCell>
        <mxCell id="HsLNgdYdGucNqx7IJYq5-50" value="S3 Retired (Iceberg)" style="text;html=1;align=center;verticalAlign=middle;whiteSpace=wrap;rounded=0;" vertex="1" parent="1">
          <mxGeometry x="574" y="410" width="60" height="30" as="geometry" />
        </mxCell>
        <mxCell id="HsLNgdYdGucNqx7IJYq5-51" value="S3 Delivery ( Paquet)" style="text;html=1;align=center;verticalAlign=middle;whiteSpace=wrap;rounded=0;" vertex="1" parent="1">
          <mxGeometry x="724" y="412" width="120" height="30" as="geometry" />
        </mxCell>
        <mxCell id="HsLNgdYdGucNqx7IJYq5-52" style="edgeStyle=orthogonalEdgeStyle;rounded=0;orthogonalLoop=1;jettySize=auto;html=1;" edge="1" parent="1" source="HsLNgdYdGucNqx7IJYq5-20" target="HsLNgdYdGucNqx7IJYq5-49">
          <mxGeometry relative="1" as="geometry" />
        </mxCell>
        <mxCell id="HsLNgdYdGucNqx7IJYq5-53" value="Lake Formation" style="text;html=1;align=center;verticalAlign=middle;whiteSpace=wrap;rounded=0;" vertex="1" parent="1">
          <mxGeometry x="599" y="619" width="60" height="30" as="geometry" />
        </mxCell>
        <mxCell id="HsLNgdYdGucNqx7IJYq5-54" value="Redshift Spectrum" style="text;html=1;align=center;verticalAlign=middle;whiteSpace=wrap;rounded=0;" vertex="1" parent="1">
          <mxGeometry x="922" y="410" width="60" height="30" as="geometry" />
        </mxCell>
        <mxCell id="HsLNgdYdGucNqx7IJYq5-56" value="Data Migration Service" style="text;html=1;align=center;verticalAlign=middle;whiteSpace=wrap;rounded=0;" vertex="1" parent="1">
          <mxGeometry x="228" y="412" width="60" height="30" as="geometry" />
        </mxCell>
        <mxCell id="HsLNgdYdGucNqx7IJYq5-58" value="" style="sketch=0;points=[[0,0,0],[0.25,0,0],[0.5,0,0],[0.75,0,0],[1,0,0],[0,1,0],[0.25,1,0],[0.5,1,0],[0.75,1,0],[1,1,0],[0,0.25,0],[0,0.5,0],[0,0.75,0],[1,0.25,0],[1,0.5,0],[1,0.75,0]];outlineConnect=0;fontColor=#232F3E;fillColor=#8C4FFF;strokeColor=#ffffff;dashed=0;verticalLabelPosition=bottom;verticalAlign=top;align=center;html=1;fontSize=12;fontStyle=0;aspect=fixed;shape=mxgraph.aws4.resourceIcon;resIcon=mxgraph.aws4.quicksight;" vertex="1" parent="1">
          <mxGeometry x="1121" y="204.82538461538462" width="78" height="78" as="geometry" />
        </mxCell>
        <mxCell id="HsLNgdYdGucNqx7IJYq5-59" value="" style="image;aspect=fixed;html=1;points=[];align=center;fontSize=12;image=img/lib/azure2/general/Dashboard2.svg;" vertex="1" parent="1">
          <mxGeometry x="1121" y="361.6469230769231" width="85" height="60" as="geometry" />
        </mxCell>
        <mxCell id="HsLNgdYdGucNqx7IJYq5-60" value="" style="sketch=0;outlineConnect=0;fontColor=#232F3E;gradientColor=none;fillColor=#232F3D;strokeColor=none;dashed=0;verticalLabelPosition=bottom;verticalAlign=top;align=center;html=1;fontSize=12;fontStyle=0;aspect=fixed;pointerEvents=1;shape=mxgraph.aws4.data_table;" vertex="1" parent="1">
          <mxGeometry x="1121" y="494.1984615384616" width="78" height="59" as="geometry" />
        </mxCell>
        <mxCell id="HsLNgdYdGucNqx7IJYq5-62" value="Quick Sight" style="text;html=1;align=center;verticalAlign=middle;whiteSpace=wrap;rounded=0;" vertex="1" parent="1">
          <mxGeometry x="1118" y="177.44384615384615" width="84" height="37.33846153846154" as="geometry" />
        </mxCell>
        <mxCell id="HsLNgdYdGucNqx7IJYq5-63" value="Dashboard&amp;nbsp; &amp;amp; summary" style="text;html=1;align=center;verticalAlign=middle;whiteSpace=wrap;rounded=0;" vertex="1" parent="1">
          <mxGeometry x="1113.5" y="325.55307692307696" width="93" height="37.33846153846154" as="geometry" />
        </mxCell>
        <mxCell id="HsLNgdYdGucNqx7IJYq5-64" value="Granular data" style="text;html=1;align=center;verticalAlign=middle;whiteSpace=wrap;rounded=0;" vertex="1" parent="1">
          <mxGeometry x="1113.5" y="466.1946153846154" width="94" height="37.33846153846154" as="geometry" />
        </mxCell>
        <mxCell id="HsLNgdYdGucNqx7IJYq5-65" value="" style="fillColor=none;strokeColor=#5A6C86;dashed=1;verticalAlign=top;fontStyle=0;fontColor=#5A6C86;whiteSpace=wrap;html=1;" vertex="1" parent="1">
          <mxGeometry x="1079" y="10" width="160" height="809" as="geometry" />
        </mxCell>
        <mxCell id="HsLNgdYdGucNqx7IJYq5-70" value="&lt;b&gt;&lt;font style=&quot;font-size: 24px;&quot;&gt;Data Visualization&lt;/font&gt;&lt;/b&gt;" style="text;html=1;align=center;verticalAlign=middle;whiteSpace=wrap;rounded=0;" vertex="1" parent="1">
          <mxGeometry x="1100" y="20" width="120" height="70" as="geometry" />
        </mxCell>
        <mxCell id="HsLNgdYdGucNqx7IJYq5-71" value="&lt;span style=&quot;font-size: 24px;&quot;&gt;&lt;b&gt;Ingest &amp;amp; ODS&lt;/b&gt;&lt;/span&gt;" style="text;html=1;align=center;verticalAlign=middle;whiteSpace=wrap;rounded=0;" vertex="1" parent="1">
          <mxGeometry x="205" y="20" width="120" height="70" as="geometry" />
        </mxCell>
        <mxCell id="HsLNgdYdGucNqx7IJYq5-72" value="&lt;span style=&quot;font-size: 24px;&quot;&gt;&lt;b&gt;LakeHouse&lt;/b&gt;&lt;/span&gt;" style="text;html=1;align=center;verticalAlign=middle;whiteSpace=wrap;rounded=0;" vertex="1" parent="1">
          <mxGeometry x="539" y="20" width="120" height="70" as="geometry" />
        </mxCell>
        <mxCell id="HsLNgdYdGucNqx7IJYq5-73" value="&lt;span style=&quot;font-size: 24px;&quot;&gt;&lt;b&gt;Serving Layer Data Warehouse &amp;amp; Data Mart&lt;/b&gt;&lt;/span&gt;" style="text;html=1;align=center;verticalAlign=middle;whiteSpace=wrap;rounded=0;" vertex="1" parent="1">
          <mxGeometry x="851" y="40" width="206" height="50" as="geometry" />
        </mxCell>
        <mxCell id="HsLNgdYdGucNqx7IJYq5-74" value="" style="fillColor=none;strokeColor=#5A6C86;dashed=1;verticalAlign=top;fontStyle=0;fontColor=#5A6C86;whiteSpace=wrap;html=1;" vertex="1" parent="1">
          <mxGeometry x="854" y="10" width="200" height="809" as="geometry" />
        </mxCell>
        <mxCell id="HsLNgdYdGucNqx7IJYq5-75" value="" style="fillColor=none;strokeColor=#5A6C86;dashed=1;verticalAlign=top;fontStyle=0;fontColor=#5A6C86;whiteSpace=wrap;html=1;" vertex="1" parent="1">
          <mxGeometry x="362" y="10" width="488" height="809" as="geometry" />
        </mxCell>
        <mxCell id="HsLNgdYdGucNqx7IJYq5-76" value="" style="fillColor=none;strokeColor=#5A6C86;dashed=1;verticalAlign=top;fontStyle=0;fontColor=#5A6C86;whiteSpace=wrap;html=1;" vertex="1" parent="1">
          <mxGeometry x="180" y="10" width="172" height="809" as="geometry" />
        </mxCell>
      </root>
    </mxGraphModel>
  </diagram>
</mxfile>
